<?xml version="1.0" encoding="utf-8"?>
<!-- Generator: Adobe Illustrator 16.0.3, SVG Export Plug-In . SVG Version: 6.00 Build 0)  -->
<!DOCTYPE svg PUBLIC "-//W3C//DTD SVG 1.1//EN" "http://www.w3.org/Graphics/SVG/1.1/DTD/svg11.dtd">
<svg version="1.1" xmlns="http://www.w3.org/2000/svg" xmlns:xlink="http://www.w3.org/1999/xlink" x="0px" y="0px" width="450px"
	 height="450px" viewBox="0 0 450 450" enable-background="new 0 0 450 450" xml:space="preserve">
<g id="Layer_1">
	<g>
		<path fill-rule="evenodd" clip-rule="evenodd" d="M92.613,342.35c0-3.096,0-6.412,0-9.934c1.378,0.271,1.871-0.788,2.625-1.626
			c0.5-0.554,1.391-0.833,2.16-1.042c0.637-0.173,1.352-0.043,2.03-0.085c1.593-0.098,2.12-0.62,2.187-2.24
			c0.038-0.917-0.026-1.839-0.026-2.758c0.004-27.921,0.012-55.841,0.011-83.761c0-1.158-0.152-2.32-0.093-3.474
			c0.1-1.923,0.979-2.488,2.861-2.152c1.011,0.181,2.062,0.185,3.094,0.186c18.36,0.021,36.72,0.047,55.079,0.014
			c1.449-0.003,2.897-0.421,4.343-0.662c0.313-0.052,0.615-0.246,0.923-0.248c2.745-0.015,4.953-1.384,7.082-2.867
			c1.137-0.793,2.188-1.74,3.159-2.734c3.235-3.314,6.366-6.731,9.631-10.015c3.238-3.255,6.622-6.364,9.88-9.598
			c2.578-2.559,5.042-5.231,7.597-7.813c1.601-1.618,3.315-3.125,4.911-4.747c3.139-3.189,6.229-6.426,9.343-9.639
			c1.535-1.584,2.711-1.486,4.256,0.109c3.61,3.727,7.287,7.39,10.933,11.083c3.087,3.126,6.163,6.262,9.252,9.387
			c2.666,2.697,5.348,5.377,8.012,8.076c4.125,4.179,8.163,8.447,12.392,12.519c2.085,2.007,4.51,3.661,6.789,5.466
			c0.149,0.118,0.362,0.202,0.553,0.219c3.445,0.311,6.687,1.599,10.261,1.533c11.236-0.205,22.479-0.079,33.719-0.074
			c6.92,0.004,13.84,0.031,20.76,0.021c0.792-0.001,1.584-0.183,2.378-0.259c1.458-0.139,2.265,0.448,2.338,1.897
			c0.077,1.512-0.039,3.032-0.039,4.548c-0.004,27.601-0.002,55.201-0.005,82.801c0,0.96-0.069,1.921-0.026,2.878
			c0.065,1.477,0.649,2.074,2.116,2.269c0.355,0.048,0.727,0.106,1.075,0.055c1.867-0.279,3.205,0.495,4.357,1.918
			c0.722,0.892,1.131,1.797,1.124,2.936c-0.011,1.959,0.037,3.918,0.036,5.876c-0.001,2.94-1.902,4.882-4.744,4.88
			c-13.919-0.009-27.839-0.021-41.758-0.023c-28.319-0.004-56.639,0.002-84.958-0.002c-25.399-0.003-50.798-0.019-76.197-0.018
			c-14.76,0-29.519,0.015-44.278,0.043c-1.384,0.002-2.454-0.411-3.295-1.575C94.084,343.193,93.386,342.903,92.613,342.35z
			 M224.458,229.33c0.038,0,0.077,0,0.115,0c0,1.519-0.013,3.038,0.004,4.558c0.018,1.559,0.1,3.116,0.09,4.675
			c-0.013,1.972-1.052,3.517-2.664,3.598c-3.348,0.167-6.705,0.173-10.058,0.188c-0.964,0.004-1.678-0.532-1.939-1.503
			c-1.017-3.775-0.011-6.179,4.23-5.433c0.039,0.007,0.08,0.005,0.12,0.008c2.771,0.247,3.775-0.617,3.808-3.39
			c0.048-3.997,0.056-7.995,0.057-11.992c0-1.931-0.78-2.508-2.69-2.442c-2.603,0.089-4.475,1.734-6.371,3.072
			c-3.466,2.445-6.187,5.622-7.463,9.82c-0.149,0.489-0.48,0.921-0.672,1.401c-0.307,0.772-0.75,1.549-0.819,2.351
			c-0.395,4.532-0.764,8.971,1.548,13.327c1.455,2.742,2.865,5.399,5.107,7.542c3.819,3.65,8.327,5.813,13.642,6.245
			c3.221,0.262,6.225-0.519,9.012-1.986c2.096-1.104,4.145-2.382,5.979-3.872c2.505-2.034,4.203-4.724,5.603-7.663
			c1.489-3.127,2.14-6.396,1.916-9.753c-0.239-3.57-0.71-7.165-2.878-10.251c-1.465-2.086-2.651-4.382-4.869-5.85
			c-1.458-0.964-2.966-1.894-4.265-3.048c-1.304-1.157-2.744-1.393-4.335-1.259c-1.561,0.131-2.197,0.857-2.202,2.425
			C224.451,223.174,224.458,226.252,224.458,229.33z M208.062,313.117c-0.014,0-0.028,0-0.042,0c0,4.557,0.011,9.112-0.004,13.668
			c-0.007,2.066,0.664,2.796,2.765,2.899c0.279,0.014,0.559,0.021,0.839,0.021c6.555,0.002,13.109,0.003,19.664,0
			c0.479-0.001,0.963-0.001,1.436-0.063c1.431-0.188,2.138-0.94,2.19-2.384c0.024-0.675-0.111-1.353-0.112-2.029
			c-0.008-7.876,0.035-15.751-0.02-23.626c-0.03-4.354-0.634-8.595-3.814-11.943c-1.765-1.857-3.656-3.513-6.394-3.911
			c-2.993-0.436-5.99-0.573-8.676,0.864c-5.246,2.81-7.783,7.378-7.825,13.313C208.037,304.323,208.062,308.721,208.062,313.117z
			 M276.464,269.07c-0.008,0-0.015,0-0.022,0c0-2.117,0.055-4.235-0.015-6.351c-0.082-2.476-1.247-3.515-3.72-3.504
			c-3.475,0.015-6.949,0.021-10.424,0.02c-3.225-0.002-4.487,1.261-4.485,4.507c0.002,3.595,0.006,7.189-0.002,10.784
			c-0.006,2.86,0.974,3.915,3.87,3.952c3.754,0.049,7.509,0.043,11.264,0.017c2.394-0.018,3.512-1.171,3.531-3.554
			C276.477,272.984,276.464,271.027,276.464,269.07z M317.827,268.853c-0.03,0-0.062,0-0.093,0c0-2.277,0.078-4.558-0.024-6.83
			c-0.083-1.854-0.969-2.746-2.662-2.767c-3.955-0.049-7.914-0.079-11.868,0.009c-2.573,0.058-3.689,1.136-3.737,3.561
			c-0.083,4.113-0.095,8.229-0.029,12.343c0.038,2.441,0.859,3.166,3.304,3.287c0.479,0.024,0.959,0.012,1.438,0.013
			c3.197,0.007,6.396-0.065,9.591,0.04c2.906,0.097,4.064-0.884,4.079-3.781C317.835,272.769,317.827,270.811,317.827,268.853z
			 M276.443,303.394c0.004,0,0.008,0,0.012,0c0-2.039,0.03-4.078-0.009-6.115c-0.042-2.19-1.063-3.303-3.214-3.332
			c-4.036-0.055-8.074-0.047-12.109,0.019c-2.168,0.035-3.267,1.13-3.299,3.283c-0.06,3.992-0.067,7.986,0.001,11.978
			c0.044,2.614,1.302,3.779,3.901,3.797c3.717,0.025,7.434,0.031,11.15,0.017c2.382-0.009,3.507-1.119,3.558-3.53
			C276.478,307.471,276.443,305.432,276.443,303.394z M317.826,303.239c-0.004,0-0.009,0-0.013,0c0-2.038,0.061-4.078-0.017-6.112
			c-0.091-2.419-1.331-3.436-3.741-3.238c-0.517,0.042-1.037,0.042-1.557,0.043c-3.116,0.005-6.234-0.032-9.351,0.017
			c-2.666,0.042-3.795,1.164-3.798,3.713c-0.004,3.835,0.008,7.67,0.063,11.505c0.04,2.794,0.967,3.708,3.751,3.849
			c0.319,0.017,0.64,0.011,0.959,0.013c3.475,0.028,6.949,0.054,10.424,0.086c1.512,0.014,2.536-0.655,2.95-2.122
			c0.224-0.794,0.294-1.648,0.315-2.479C317.857,306.756,317.826,304.997,317.826,303.239z M125.163,268.92c0.004,0,0.008,0,0.012,0
			c0,1.039-0.004,2.079,0.001,3.118c0.008,1.358-0.073,2.727,0.059,4.073c0.183,1.875,1.142,2.584,2.994,2.456
			c0.716-0.05,1.435-0.093,2.153-0.095c3.279-0.012,6.559,0.025,9.837-0.022c2.279-0.032,3.095-0.778,3.127-3.008
			c0.062-4.277,0.072-8.558-0.017-12.834c-0.051-2.476-0.834-3.162-3.276-3.345c-0.278-0.021-0.56-0.01-0.839-0.011
			c-3.519-0.006-7.038,0.012-10.556-0.022c-2.687-0.026-3.406,0.593-3.484,3.332C125.115,264.681,125.163,266.801,125.163,268.92z
			 M166.672,269.041c0.001,0,0.003,0,0.004,0c0,2.158-0.042,4.316,0.012,6.474c0.053,2.086,1.079,3.083,3.024,3.065
			c3.794-0.034,7.588-0.071,11.383-0.114c3.133-0.035,3.944-0.888,3.931-4.045c-0.015-3.517-0.021-7.033-0.001-10.55
			c0.021-3.664-0.917-4.626-4.588-4.627c-3.392-0.001-6.784,0.011-10.176-0.012c-2.65-0.018-3.514,0.763-3.579,3.455
			C166.632,264.804,166.672,266.923,166.672,269.041z M143.374,303.315c0.011,0,0.022,0,0.033,0c0-1.84-0.022-3.68,0.005-5.519
			c0.044-3.132-0.641-3.858-3.732-3.862c-3.52-0.005-7.052,0.177-10.557-0.053c-3.61-0.236-3.998,1.027-3.966,4.005
			c0.03,2.837,0.004,5.675,0.02,8.513c0.008,1.318-0.029,2.646,0.108,3.952c0.204,1.933,0.938,2.604,2.885,2.647
			c2.398,0.054,4.799-0.001,7.198-0.008c1.879-0.006,3.758,0.007,5.637-0.021c1.156-0.017,1.876-0.648,2.111-1.76
			c0.148-0.699,0.234-1.423,0.246-2.137C143.396,307.155,143.374,305.235,143.374,303.315z M166.67,303.117c0.003,0,0.007,0,0.011,0
			c0,2.116-0.057,4.235,0.014,6.35c0.085,2.533,1.021,3.495,3.533,3.534c3.752,0.059,7.507,0.055,11.258-0.022
			c2.574-0.054,3.393-0.95,3.516-3.513c0.019-0.397,0.01-0.798,0.01-1.197c0.003-3.234-0.065-6.471,0.026-9.703
			c0.111-3.913-0.518-4.624-4.463-4.633c-3.434-0.009-6.871,0.063-10.3-0.069c-2.46-0.095-3.542,0.693-3.596,3.146
			C166.635,299.044,166.67,301.081,166.67,303.117z"/>
		<path fill-rule="evenodd" clip-rule="evenodd" d="M92.635,223.36c0-1.073,0-2.139,0-3.278c1.275,0.071,1.782-0.76,2.341-1.701
			c0.832-1.4,1.824-2.707,2.791-4.022c2.436-3.313,4.882-6.618,7.349-9.909c3.682-4.911,7.411-9.787,11.071-14.714
			c2.639-3.552,5.146-7.201,7.811-10.733c1.785-2.366,3.945-3.91,7.236-3.886c17.118,0.123,34.237,0.065,51.355,0.108
			c1.822,0.004,3.144-0.679,4.402-1.982c3.218-3.333,6.583-6.525,9.86-9.803c3.39-3.391,6.731-6.83,10.119-10.223
			c2.596-2.6,5.235-5.157,7.848-7.74c0.853-0.842,1.78-1.635,2.489-2.587c0.443-0.595,0.761-1.446,0.763-2.184
			c0.043-12.279,0.027-24.559,0.023-36.838c0-1.113-0.131-2.243,0.024-3.333c0.231-1.618,1.149-2.463,2.765-2.719
			c2.195-0.348,4.13-0.04,6.071,1.387c3.188,2.345,6.812,3.399,10.923,2.899c3.243-0.394,6.164-1.683,9.058-2.875
			c4.813-1.982,9.459-1.862,14.227-0.255c1.058,0.356,2.08,0.817,3.122,1.223c1.194,0.465,1.915,1.3,1.946,2.609
			c0.031,1.273-0.002,2.549-0.003,3.823c-0.002,5.959-0.013,11.919,0.007,17.879c0.004,0.994,0.202,1.987,0.209,2.981
			c0.013,1.74-0.938,2.287-2.502,1.504c-1.233-0.617-2.414-1.445-3.721-1.793c-3.812-1.016-7.684-0.738-11.529-0.092
			c-0.614,0.104-1.194,0.425-1.785,0.66c-1.033,0.412-2.049,0.876-3.098,1.243c-1.613,0.564-3.216,1.24-4.883,1.558
			c-3.928,0.748-7.593-0.119-10.977-2.231c-0.832-0.521-1.708-1.299-2.72-0.67c-0.98,0.609-0.767,1.751-0.753,2.737
			c0.045,3.275,0.222,6.555,0.118,9.825c-0.068,2.131,1.308,3.304,2.538,4.539c5.922,5.946,11.91,11.825,17.885,17.718
			c3.868,3.815,7.768,7.6,11.62,11.43c0.95,0.944,2.026,1.313,3.338,1.309c11.839-0.03,23.678-0.034,35.517-0.048
			c5.52-0.006,11.041,0.054,16.559-0.057c2.781-0.056,4.736,1.242,6.315,3.276c2.909,3.75,5.776,7.534,8.601,11.349
			c1.825,2.465,3.511,5.032,5.316,7.512c1.669,2.292,3.429,4.517,5.12,6.792c1.951,2.624,3.858,5.281,5.81,7.904
			c1.785,2.398,3.559,4.806,5.426,7.14c0.93,1.162,1.31,2.362,0.892,3.775c-0.41,1.386-1.545,1.938-2.825,2.046
			c-1.456,0.122-2.931,0.018-4.396,0.018c-20.039,0.005-40.078,0.019-60.117-0.003c-1.298-0.001-2.722,0.007-3.855-0.504
			c-1.184-0.533-2.147-1.627-3.101-2.583c-6.354-6.367-12.671-12.769-19.014-19.147c-5.184-5.213-10.378-10.416-15.579-15.612
			c-5.08-5.076-10.172-10.14-15.262-15.206c-0.875-0.872-1.716-1.788-2.66-2.58c-1.315-1.103-1.633-1.063-2.826,0.116
			c-1.391,1.374-2.752,2.777-4.132,4.162c-3.468,3.479-6.946,6.949-10.409,10.435c-4.674,4.704-9.329,9.425-14.006,14.126
			c-4.844,4.869-9.71,9.717-14.555,14.585c-2.649,2.663-5.255,5.369-7.918,8.016c-1.132,1.125-2.249,2.335-3.586,3.161
			c-1.024,0.632-2.381,0.999-3.593,1.005c-11.999,0.068-23.999,0.036-35.998,0.035c-8.959-0.001-17.919-0.044-26.878,0.043
			c-1.776,0.018-3.401,0.033-4.813-1.227C93.717,223.494,93.188,223.508,92.635,223.36z"/>
	</g>
</g>
<g id="Layer_2">
</g>
</svg>
